<svg xmlns="http://www.w3.org/2000/svg" xmlns:xlink="http://www.w3.org/1999/xlink" fill="none" version="1.1" width="20" height="20" viewBox="0 0 20 20"><defs><clipPath id="master_svg0_0_351"><rect x="0" y="0" width="20" height="20" rx="0"/></clipPath></defs><g clip-path="url(#master_svg0_0_351)"><g><g><path d="M10.551971329421997,15.774036787796021L9.302591329421997,17.02342678779602Q7.992431329421997,18.33353678779602,6.139581329421997,18.33353678779602Q4.286741329421997,18.33353678779602,2.976578329421997,17.02342678779602Q1.666418329421997,15.713266787796021,1.666418329421997,13.86041678779602Q1.666418329421997,12.00756678779602,2.976577329421997,10.69740678779602L5.550841329421997,8.12398278779602Q6.860961329421997,6.814403787796021,8.713331329421997,6.814403787796021Q10.536871329421997,6.814403787796021,11.834891329421998,8.08351378779602Q11.971531329421998,8.202450787796021,12.046601329421996,8.36731578779602Q12.121661329421997,8.53218178779602,12.121661329421997,8.71333678779602Q12.121661329421997,8.795576787796021,12.105621329421997,8.87623678779602Q12.089581329421996,8.95689678779602,12.058101329421998,9.03287678779602Q12.026631329421997,9.10885678779602,11.980941329421997,9.177236787796021Q11.935251329421996,9.24561678779602,11.877101329421997,9.30376678779602Q11.818951329421997,9.361916787796021,11.750561329421997,9.40760678779602Q11.682181329421997,9.45329678779602,11.606201329421998,9.48477678779602Q11.530221329421996,9.516246787796021,11.449561329421996,9.532286787796021Q11.368901329421996,9.548336787796021,11.286661329421998,9.548336787796021Q11.108341329421997,9.548336787796021,10.945581329421998,9.47549678779602Q10.782811329421998,9.402646787796021,10.664001329421996,9.269676787796021Q9.851941329421997,8.48106978779602,8.713331329421997,8.48106978779602Q7.551111329421997,8.48106978779602,6.729161329421997,9.30268678779602L4.155091329421997,11.87591678779602Q3.333084329421997,12.697926787796021,3.333084329421997,13.86041678779602Q3.333084329421997,15.022906787796021,4.155091329421997,15.84491678779602Q4.977091329421997,16.66691678779602,6.139581329421997,16.66691678779602Q7.302071329421997,16.66691678779602,8.124081329421998,15.84491678779602L9.373451329421997,14.595536787796021Q9.492341329421997,14.460586787796021,9.656241329421997,14.386536787796022Q9.820151329421996,14.312496787796022,10.000001329421998,14.312496787796022Q10.082241329421997,14.312496787796022,10.162901329421997,14.328546787796022Q10.243561329421997,14.344586787796022,10.319541329421998,14.37605678779602Q10.395521329421996,14.40752678779602,10.463901329421997,14.45322678779602Q10.532281329421997,14.49891678779602,10.590431329421998,14.557066787796021Q10.648581329421997,14.61521678779602,10.694271329421998,14.68359678779602Q10.739961329421996,14.751976787796021,10.771441329421997,14.82795678779602Q10.802911329421997,14.90393678779602,10.818951329421997,14.98459678779602Q10.835001329421997,15.06525678779602,10.835001329421997,15.14749678779602Q10.835001329421997,15.32734678779602,10.760961329421997,15.49124678779602Q10.686921329421997,15.65514678779602,10.551971329421997,15.774036787796021Z" fill-rule="evenodd" fill="#000000" fill-opacity="1"/></g><g><path d="M10.626544321975707,5.404471329421997Q10.507654321975707,5.539421329421997,10.343754321975709,5.613461329421997Q10.179854321975707,5.6875013294219965,10.000004321975709,5.6875013294219965Q9.917764321975708,5.6875013294219965,9.837104321975708,5.671451329421997Q9.756444321975708,5.655411329421997,9.680460321975708,5.6239413294219975Q9.604479321975708,5.592471329421997,9.536099321975708,5.5467813294219965Q9.467719321975707,5.501091329421997,9.409566321975708,5.442931329421997Q9.351413321975707,5.3847813294219975,9.305723321975709,5.316401329421997Q9.260033321975708,5.248021329421997,9.228561321975707,5.172041329421997Q9.197089321975708,5.096061329421997,9.181045321975708,5.015401329421997Q9.165000321975707,4.934741329421997,9.165000321975707,4.852501329421997Q9.165000321975707,4.672651329421997,9.239041321975709,4.508751329421997Q9.313082321975708,4.344841329421997,9.448033321975707,4.2259513294219975L10.697414321975709,2.976577329421997Q12.007574321975708,1.666418329421997,13.860414321975707,1.666418329421997Q15.713264321975707,1.666418329421997,17.02342432197571,2.976577329421997Q18.333584321975707,4.286741329421997,18.333584321975707,6.139581329421997Q18.333584321975707,7.992431329421997,17.02342432197571,9.302591329421997L14.449164321975708,11.876021329421997Q13.139034321975707,13.185551329421997,11.286664321975708,13.185551329421997Q9.463118321975708,13.185551329421997,8.165096321975708,11.916471329421997Q8.028463321975709,11.797541329421998,7.9533993219757075,11.632681329421997Q7.878334321975708,11.467811329421997,7.878334321975708,11.286661329421998Q7.878334321975708,11.204421329421997,7.894378321975708,11.123761329421997Q7.910423321975708,11.043101329421997,7.941895321975708,10.967121329421998Q7.973367321975708,10.891141329421997,8.019057321975708,10.822761329421997Q8.064747321975709,10.754381329421998,8.122900321975708,10.696231329421996Q8.181053321975709,10.638081329421997,8.249433321975708,10.592391329421996Q8.317813321975708,10.546701329421998,8.393793321975709,10.515221329421998Q8.469774321975708,10.483751329421997,8.550434321975708,10.467711329421997Q8.631094021975708,10.451661329421997,8.713334321975708,10.451661329421997Q8.891660321975708,10.451661329421997,9.054428321975708,10.524511329421998Q9.217197321975707,10.597351329421997,9.336008321975708,10.730341329421996Q10.148064321975708,11.518931329421997,11.286664321975708,11.518931329421997Q12.448884321975708,11.518931329421997,13.270844321975709,10.697311329421996L15.844914321975708,8.124081329421998Q16.666914321975707,7.302071329421997,16.666914321975707,6.139581329421997Q16.666914321975707,4.977091329421997,15.844914321975708,4.155091329421997Q15.022904321975709,3.333084329421997,13.860414321975707,3.333084329421997Q12.697924321975709,3.333084329421997,11.875924321975708,4.155091329421997L10.626544321975707,5.404471329421997Z" fill-rule="evenodd" fill="#000000" fill-opacity="1"/></g></g></g></svg>