<svg xmlns="http://www.w3.org/2000/svg" xmlns:xlink="http://www.w3.org/1999/xlink" fill="none" version="1.1" width="31.875" height="31.875" viewBox="0 0 31.875 31.875"><g><g><path d="M16.875,1.875C8.59152,1.875,1.875,8.59152,1.875,16.875C1.875,25.1585,8.59152,31.875,16.875,31.875C25.1585,31.875,31.875,25.1585,31.875,16.875C31.875,8.59152,25.1585,1.875,16.875,1.875ZM24.0837,13.1819C24.0938,13.3393,24.0938,13.5033,24.0938,13.6641C24.0938,18.5792,20.3504,24.2411,13.51,24.2411C11.40067,24.2411,9.44531,23.6283,7.79799,22.5737C8.09933,22.6071,8.38728,22.6205,8.69531,22.6205C10.43638,22.6205,12.0368,22.0312,13.3125,21.0335C11.67857,21,10.3058,19.9286,9.83705,18.4554C10.4096,18.5391,10.92522,18.5391,11.51451,18.3884C10.67319,18.2175,9.91699,17.7605,9.37438,17.0953C8.83178,16.43,8.53623,15.5973,8.53795,14.7388C8.53795,14.7388,8.53795,14.692,8.53795,14.692C9.03013,14.9699,9.60938,15.1406,10.2154,15.1641C9.70595,14.8245,9.28814,14.3645,8.999030000000001,13.8249C8.70993,13.2852,8.55845,12.6825,8.55804,12.0703C8.55804,11.37723,8.73884,10.74442,9.06362,10.19531C9.99744,11.34488,11.16271,12.2851,12.4837,12.9548C13.8047,13.6245,15.2518,14.0088,16.731,14.0826C16.205399999999997,11.55469,18.0938,9.50893,20.3638,9.50893C21.4353,9.50893,22.3996,9.95759,23.0792,10.6808C23.9196,10.52344,24.7232,10.2087,25.4397,9.78683C25.1618,10.64732,24.5792,11.37388,23.8058,11.83259C24.5558,11.75223,25.279,11.54464,25.9487,11.25335C25.4431,11.9967,24.8103,12.6562,24.0837,13.1819C24.0837,13.1819,24.0837,13.1819,24.0837,13.1819Z" fill="#42446E" fill-opacity="1"/></g></g></svg>