<svg xmlns="http://www.w3.org/2000/svg" xmlns:xlink="http://www.w3.org/1999/xlink" fill="none" version="1.1" width="30" height="30" viewBox="0 0 30 30"><defs><clipPath id="master_svg0_0_220"><rect x="0" y="0" width="30" height="30" rx="0"/></clipPath></defs><g clip-path="url(#master_svg0_0_220)"><g><path d="M15.000000023841858,0.6000000238418579C7.047000023841858,0.6000000238418579,0.6000000238418579,7.047000023841858,0.6000000238418579,15.000000023841858C0.6000000238418579,22.95300002384186,7.047000023841858,29.40000002384186,15.000000023841858,29.40000002384186C22.95300002384186,29.40000002384186,29.40000002384186,22.95300002384186,29.40000002384186,15.000000023841858C29.40000002384186,7.047000023841858,22.95300002384186,0.6000000238418579,15.000000023841858,0.6000000238418579ZM11.475000023841858,20.96850002384186C11.475000023841858,20.96850002384186,8.559000023841858,20.96850002384186,8.559000023841858,20.96850002384186C8.559000023841858,20.96850002384186,8.559000023841858,11.584500023841859,8.559000023841858,11.584500023841859C8.559000023841858,11.584500023841859,11.475000023841858,11.584500023841859,11.475000023841858,11.584500023841859C11.475000023841858,11.584500023841859,11.475000023841858,20.96850002384186,11.475000023841858,20.96850002384186ZM9.999000023841857,10.432500023841857C9.078000023841858,10.432500023841857,8.482500023841858,9.780000023841858,8.482500023841858,8.973000023841857C8.482500023841858,8.149500023841858,9.096000023841858,7.516500023841858,10.036500023841858,7.516500023841858C10.977000023841859,7.516500023841858,11.553000023841857,8.149500023841858,11.571000023841858,8.973000023841857C11.571000023841858,9.780000023841858,10.977000023841859,10.432500023841857,9.999000023841857,10.432500023841857ZM22.125000023841856,20.96850002384186C22.125000023841856,20.96850002384186,19.20900002384186,20.96850002384186,19.20900002384186,20.96850002384186C19.20900002384186,20.96850002384186,19.20900002384186,15.768000023841857,19.20900002384186,15.768000023841857C19.20900002384186,14.557500023841857,18.786000023841858,13.735500023841858,17.731500023841857,13.735500023841858C16.92600002384186,13.735500023841858,16.447500023841858,14.292000023841858,16.236000023841857,14.827500023841857C16.158000023841858,15.018000023841857,16.138500023841857,15.288000023841859,16.138500023841857,15.556500023841858C16.138500023841857,15.556500023841858,16.138500023841857,20.96700002384186,16.138500023841857,20.96700002384186C16.138500023841857,20.96700002384186,13.221000023841858,20.96700002384186,13.221000023841858,20.96700002384186C13.221000023841858,20.96700002384186,13.221000023841858,14.577000023841858,13.221000023841858,14.577000023841858C13.221000023841858,13.405500023841858,13.183500023841859,12.426000023841858,13.144500023841857,11.583000023841858C13.144500023841857,11.583000023841858,15.678000023841857,11.583000023841858,15.678000023841857,11.583000023841858C15.678000023841857,11.583000023841858,15.811500023841857,12.886500023841858,15.811500023841857,12.886500023841858C15.811500023841857,12.886500023841858,15.870000023841857,12.886500023841858,15.870000023841857,12.886500023841858C16.254000023841858,12.274500023841858,17.194500023841858,11.371500023841858,18.768000023841857,11.371500023841858C20.68650002384186,11.371500023841858,22.125000023841856,12.657000023841858,22.125000023841856,15.420000023841858C22.125000023841856,15.420000023841858,22.125000023841856,20.96850002384186,22.125000023841856,20.96850002384186C22.125000023841856,20.96850002384186,22.125000023841856,20.96850002384186,22.125000023841856,20.96850002384186Z" fill="#42446E" fill-opacity="1"/></g></g></svg>