<svg xmlns="http://www.w3.org/2000/svg" xmlns:xlink="http://www.w3.org/1999/xlink" fill="none" version="1.1" width="97" height="59" viewBox="0 0 97 59"><defs><clipPath id="master_svg0_0_196"><rect x="0" y="0" width="97" height="59" rx="0"/></clipPath></defs><g clip-path="url(#master_svg0_0_196)"><g><path d="M12.5581,0C12.5581,0,12.5581,3.83066,12.5581,3.83066C11.5028,3.83066,10.6796,3.98157,10.0882,4.28338C9.49679,4.57357,9.24169,5.15977,9.32287,6.04199C9.32287,6.04199,9.86206,11.1785,9.86206,11.1785C10.0012,12.4786,9.85626,13.5292,9.42722,14.3301C9.00978,15.131,8.36623,15.7464,7.49655,16.1758C6.63848,16.5938,5.62386,16.8897,4.45271,17.0638C5.69343,17.2495,6.74284,17.5514,7.60092,17.9693C8.45899,18.3871,9.08515,18.9907,9.4794,19.7801C9.87365,20.5695,10.0012,21.6258,9.86206,22.9492C9.86206,22.9492,9.32287,28.0857,9.32287,28.0857C9.24169,28.9679,9.49679,29.5541,10.0882,29.8443C10.6796,30.146,11.5028,30.297,12.5581,30.297C12.5581,30.297,12.5581,34.1277,12.5581,34.1277C9.35765,34.1277,7.1081,33.6401,5.80939,32.6651C4.52229,31.7016,4.00048,30.0475,4.24398,27.7026C4.24398,27.7026,4.76579,22.7227,4.76579,22.7227C4.85856,21.8406,4.70782,21.1499,4.31357,20.6507C3.93091,20.1516,3.36272,19.8033,2.60901,19.6059C1.85529,19.3971,0.985626,19.2926,0,19.2926C0,19.2926,0,14.8351,0,14.8351C0.97403,14.8351,1.8379,14.7364,2.59162,14.5391C3.34533,14.3301,3.91932,13.9761,4.31357,13.477C4.70782,12.9778,4.85856,12.2871,4.76579,11.4049C4.76579,11.4049,4.24398,6.45987,4.24398,6.45987C3.98889,4.06861,4.51068,2.39706,5.80939,1.4452C7.1081,0.481734,9.35765,0,12.5581,0Z" fill="#42446E" fill-opacity="1"/></g><g><path d="M27.632968146362305,4.509726524353027C30.508728146362305,4.509726524353027,32.67712814636231,5.624096524353027,34.138128146362305,7.852836524353027C35.61082814636231,10.069986524353027,36.34712814636231,13.163516524353028,36.34712814636231,17.133526524353027C36.34712814636231,21.115026524353027,35.61082814636231,24.23182652435303,34.138128146362305,26.483726524353028C32.67712814636231,28.72412652435303,30.508728146362305,29.844326524353026,27.632968146362305,29.844326524353026C24.734138146362305,29.844326524353026,22.554098146362303,28.72412652435303,21.093078146362306,26.483726524353028C19.643603146362306,24.23182652435303,18.918928146362305,21.115026524353027,18.918928146362305,17.133526524353027C18.918928146362305,13.163516524353028,19.643603146362306,10.069986524353027,21.093078146362306,7.852836524353027C22.554098146362303,5.624096524353027,24.734138146362305,4.509726524353027,27.632968146362305,4.509726524353027ZM27.632968146362305,8.497096524353028C26.403888146362306,8.497096524353028,25.505228146362306,9.158756524353027,24.936978146362303,10.482066524353026C24.368858146362307,11.793776524353028,24.084728146362306,14.010906524353027,24.084728146362306,17.133526524353027C24.084728146362306,18.155026524353026,24.102168146362303,19.066226524353027,24.136918146362305,19.867126524353026C24.171788146362303,20.656526524353026,24.223968146362303,21.358826524353027,24.293468146362304,21.97402652435303C24.293468146362304,21.97402652435303,30.172428146362307,9.663696524353028,30.172428146362307,9.663696524353028C29.894128146362306,9.222596524353026,29.546328146362306,8.920786524353026,29.128828146362302,8.758266524353028C28.723048146362302,8.584156524353027,28.224418146362304,8.497096524353028,27.632968146362305,8.497096524353028ZM31.146428146362304,17.133526524353027C31.146428146362304,15.798626524353027,31.117428146362304,14.672526524353028,31.059528146362304,13.755486524353028C31.059528146362304,13.755486524353028,25.510998146362304,25.23012652435303,25.510998146362304,25.23012652435303C25.766148146362305,25.473826524353026,26.067578146362305,25.642126524353028,26.415428146362306,25.735026524353028C26.774948146362306,25.82782652435303,27.180748146362305,25.874326524353027,27.632968146362305,25.874326524353027C28.456358146362305,25.874326524353027,29.123128146362305,25.595826524353026,29.633228146362306,25.038626524353027C30.155128146362305,24.481426524353026,30.537728146362305,23.564326524353028,30.781128146362306,22.287526524353027C31.024728146362307,20.998926524353028,31.146428146362304,19.280926524353028,31.146428146362304,17.133526524353027Z" fill="#42446E" fill-opacity="1"/></g><g><path d="M48.500001151123044,4.509726524353027C51.375761151123044,4.509726524353027,53.54416115112305,5.624096524353027,55.00516115112305,7.852836524353027C56.47786115112305,10.069986524353027,57.21406115112305,13.163516524353028,57.21406115112305,17.133526524353027C57.21406115112305,21.115026524353027,56.47786115112305,24.23182652435303,55.00516115112305,26.483726524353028C53.54416115112305,28.72412652435303,51.375761151123044,29.844326524353026,48.500001151123044,29.844326524353026C45.601051151123045,29.844326524353026,43.42113115112305,28.72412652435303,41.960111151123044,26.483726524353028C40.51063515112305,24.23182652435303,39.78596115112305,21.115026524353027,39.78596115112305,17.133526524353027C39.78596115112305,13.163516524353028,40.51063515112305,10.069986524353027,41.960111151123044,7.852836524353027C43.42113115112305,5.624096524353027,45.601051151123045,4.509726524353027,48.500001151123044,4.509726524353027ZM48.500001151123044,8.497096524353028C47.27092115112305,8.497096524353028,46.37226115112305,9.158756524353027,45.80401115112305,10.482066524353026C45.235881151123046,11.793776524353028,44.951761151123044,14.010906524353027,44.951761151123044,17.133526524353027C44.951761151123044,18.155026524353026,44.969201151123045,19.066226524353027,45.003941151123044,19.867126524353026C45.03869115112305,20.656526524353026,45.09088115112305,21.358826524353027,45.16050115112304,21.97402652435303C45.16050115112304,21.97402652435303,51.03946115112305,9.663696524353028,51.03946115112305,9.663696524353028C50.761061151123045,9.222596524353026,50.413261151123045,8.920786524353026,49.995861151123044,8.758266524353028C49.58996115112305,8.584156524353027,49.09133115112304,8.497096524353028,48.500001151123044,8.497096524353028ZM52.013461151123046,17.133526524353027C52.013461151123046,15.798626524353027,51.98446115112304,14.672526524353028,51.926561151123046,13.755486524353028C51.926561151123046,13.755486524353028,46.37803115112305,25.23012652435303,46.37803115112305,25.23012652435303C46.633061151123044,25.473826524353026,46.93461115112305,25.642126524353028,47.282461151123044,25.735026524353028C47.64198115112305,25.82782652435303,48.04778115112305,25.874326524353027,48.500001151123044,25.874326524353027C49.323271151123045,25.874326524353027,49.98996115112305,25.595826524353026,50.50026115112305,25.038626524353027C51.02196115112305,24.481426524353026,51.40476115112305,23.564326524353028,51.64816115112305,22.287526524353027C51.891661151123046,20.998926524353028,52.013461151123046,19.280926524353028,52.013461151123046,17.133526524353027Z" fill="#42446E" fill-opacity="1"/></g><g><path d="M68.11462671875,29.809547777557373C68.11462671875,29.809547777557373,62.89664671875,28.190247777557374,62.89664671875,28.190247777557374C62.89664671875,28.190247777557374,71.88898671875,9.263217777557372,71.88898671875,9.263217777557372C71.88898671875,9.263217777557372,61.29638671875,9.263217777557372,61.29638671875,9.263217777557372C61.29638671875,9.263217777557372,61.29638671875,5.119147777557373,61.29638671875,5.119147777557373C61.29638671875,5.119147777557373,77.45488671875,5.119147777557373,77.45488671875,5.119147777557373C77.45488671875,5.119147777557373,77.45488671875,8.845327777557372,77.45488671875,8.845327777557372C77.45488671875,8.845327777557372,68.11462671875,29.809547777557373,68.11462671875,29.809547777557373Z" fill="#42446E" fill-opacity="1"/></g><g><path d="M84.44194030761719,0C87.64233030761719,0,89.88610030761718,0.481734,91.17325030761718,1.4452C92.47194030761719,2.40867,92.99955030761718,4.06862,92.7560703076172,6.42505C92.7560703076172,6.42505,92.23423030761718,11.4049,92.23423030761718,11.4049C92.14140030761719,12.2871,92.29219030761719,12.9778,92.68645030761719,13.477C93.08071030761718,13.9761,93.64883030761719,14.3301,94.39095030761719,14.5391C95.14474030761718,14.7364,96.01444030761719,14.8351,97.00004030761718,14.8351C97.00004030761718,14.8351,97.00004030761718,19.2926,97.00004030761718,19.2926C96.02594030761719,19.2926,95.1621403076172,19.3971,94.4083803076172,19.6059C93.65473030761719,19.8033,93.08071030761718,20.1516,92.68645030761719,20.6507C92.29219030761719,21.1499,92.14140030761719,21.8406,92.23423030761718,22.7227C92.23423030761718,22.7227,92.7560703076172,27.6678,92.7560703076172,27.6678C93.02276030761719,30.0475,92.50092030761719,31.719,91.19056030761719,32.6824C89.89187030761718,33.646,87.64233030761719,34.1277,84.44194030761719,34.1277C84.44194030761719,34.1277,84.44194030761719,30.297,84.44194030761719,30.297C85.50882030761719,30.297,86.33786030761719,30.146,86.92919030761719,29.8443C87.52064030761719,29.5541,87.76990030761719,28.9679,87.67720030761718,28.0857C87.67720030761718,28.0857,87.13793030761718,22.9492,87.13793030761718,22.9492C86.99881030761719,21.6374,87.1379203076172,20.5868,87.55539030761719,19.7976C87.9844003076172,18.9965,88.63381030761718,18.3871,89.50350030761719,17.9693C90.37306030761718,17.5397,91.39353030761718,17.238,92.56465030761719,17.0638C91.32391030761718,16.8781,90.26882030761719,16.5763,89.39913030761718,16.1584C88.5409903076172,15.7405,87.91491030761719,15.1369,87.52065030761719,14.3476C87.12638030761718,13.5466,86.99881030761719,12.4903,87.13793030761718,11.1785C87.13793030761718,11.1785,87.67720030761718,6.04199,87.67720030761718,6.04199C87.76990030761719,5.15977,87.51475030761719,4.57357,86.91188030761718,4.28338C86.32042030761718,3.98157,85.49715030761719,3.83066,84.44194030761719,3.83066C84.44194030761719,3.83066,84.44194030761719,0,84.44194030761719,0Z" fill="#42446E" fill-opacity="1"/></g><g><path d="M12.274511114501953,42.16201400756836C13.241601114501954,42.16201400756836,14.020801114501953,42.40231400756836,14.612131114501953,42.88291800756836C15.203581114501953,43.36340400756836,15.634931114501953,44.04251400756836,15.906281114501953,44.92014400756836C16.18451111450195,45.79764400756836,16.323711114501954,46.83886400756836,16.323711114501954,48.04382400756836C16.323711114501954,49.18608400756836,16.156811114501956,50.20642400756836,15.822791114501953,51.10481400756836C15.488811114501953,51.99633400756836,15.005291114501953,52.699814007568364,14.372211114501953,53.21521400756836C13.739011114501952,53.72371400756836,12.970251114501952,53.97791400756836,12.065791114501952,53.97791400756836C10.987401114501953,53.97791400756836,10.110761114501953,53.59131400756836,9.435901114501952,52.81811400756836C9.435901114501952,52.81811400756836,9.435901114501952,57.90601400756836,9.435901114501952,57.90601400756836C9.435901114501952,57.90601400756836,6.138111114501953,58.25081400756836,6.138111114501953,58.25081400756836C6.138111114501953,58.25081400756836,6.138111114501953,42.52769200756836,6.138111114501953,42.52769200756836C6.138111114501953,42.52769200756836,9.060201114501954,42.52769200756836,9.060201114501954,42.52769200756836C9.060201114501954,42.52769200756836,9.206321114501954,43.77087400756836,9.206321114501954,43.77087400756836C9.658551114501954,43.19279400756836,10.152511114501953,42.78188300756836,10.688231114501953,42.53813900756836C11.223941114501953,42.28738900756836,11.752701114501953,42.16201400756836,12.274511114501953,42.16201400756836ZM11.251781114501952,44.59625400756836C10.869121114501954,44.59625400756836,10.531691114501953,44.71118400756836,10.239481114501952,44.94103400756836C9.947281114501953,45.17076400756836,9.679411114501953,45.48420400756836,9.435901114501952,45.881224007568356C9.435901114501952,45.881224007568356,9.435901114501952,50.56164400756836,9.435901114501952,50.56164400756836C9.665501114501954,50.90286400756836,9.905531114501953,51.15361400756836,10.156001114501954,51.313774007568355C10.413421114501954,51.47393400756836,10.716061114501954,51.55407400756836,11.063931114501953,51.55407400756836C11.648351114501953,51.55407400756836,12.104051114501953,51.28943400756836,12.431101114501953,50.76003400756836C12.758081114501953,50.22374400756836,12.921501114501954,49.33235400756836,12.921501114501954,48.08561400756836C12.921501114501954,47.16619400756836,12.855451114501953,46.45586400756836,12.723211114501954,45.95436400756836C12.591091114501953,45.445984007568356,12.399791114501953,45.09418400756836,12.149271114501953,44.899244007568356C11.898801114501953,44.69716400756836,11.599641114501953,44.59625400756836,11.251781114501952,44.59625400756836Z" fill="#42446E" fill-opacity="1"/></g><g><path d="M27.988210668945314,50.42582400756836C27.988210668945314,50.84361400756836,28.043810668945312,51.14661400756836,28.155210668945312,51.33467400756836C28.27341066894531,51.52273400756836,28.461310668945313,51.66556400756836,28.718610668945313,51.76303400756836C28.718610668945313,51.76303400756836,28.040410668945313,53.936114007568364,28.040410668945313,53.936114007568364C27.386290668945314,53.87341400756836,26.83327066894531,53.73051400756836,26.38093066894531,53.50771400756836C25.935710668945312,53.27781400756836,25.584430668945313,52.93311400756836,25.32695066894531,52.47351400756836C24.90260066894531,52.98191400756836,24.35989066894531,53.36141400756836,23.698940668945312,53.61221400756836C23.037990668945312,53.85591400756836,22.363170668945312,53.97791400756836,21.674340668945312,53.97791400756836C20.533300668945312,53.97791400756836,19.621870668945313,53.654014007568364,18.94005066894531,53.00621400756836C18.265223668945314,52.35151400756836,17.927810668945312,51.51228400756836,17.927810668945312,50.488514007568355C17.927810668945312,49.28356400756836,18.397462668945312,48.35369400756836,19.336640668945314,47.69904400756836C20.282820668945313,47.04438400756836,21.611720668945313,46.71705400756836,23.32322066894531,46.71705400756836C23.32322066894531,46.71705400756836,24.815550668945313,46.71705400756836,24.815550668945313,46.71705400756836C24.815550668945313,46.71705400756836,24.815550668945313,46.29914400756836,24.815550668945313,46.29914400756836C24.815550668945313,45.163884007568356,24.085100668945312,44.59625400756836,22.623960668945312,44.59625400756836C22.269230668945312,44.59625400756836,21.81346066894531,44.64849400756836,21.25687066894531,44.75297400756836C20.700290668945314,44.850444007568356,20.143710668945314,44.99315400756836,19.587120668945314,45.18121400756836C19.587120668945314,45.18121400756836,18.825244668945313,42.98740100756836,18.825244668945313,42.98740100756836C19.541940668945312,42.71575500756836,20.286380668945313,42.51023500756836,21.05858066894531,42.37097000756836C21.83777066894531,42.23170550756836,22.533590668945312,42.16201400756836,23.145800668945313,42.16201400756836C24.79467066894531,42.16201400756836,26.012210668945315,42.49979100756836,26.798400668945312,43.17534400756836C27.59159066894531,43.84400400756836,27.988210668945314,44.81210400756836,27.988210668945314,46.07973400756836C27.988210668945314,46.07973400756836,27.988210668945314,50.42582400756836,27.988210668945314,50.42582400756836ZM22.811820668945312,51.616764007568364C23.16667066894531,51.616764007568364,23.53895066894531,51.51228400756836,23.928550668945313,51.303324007568364C24.31814066894531,51.087484007568364,24.613810668945312,50.784494007568355,24.815550668945313,50.39448400756836C24.815550668945313,50.39448400756836,24.815550668945313,48.59756400756836,24.815550668945313,48.59756400756836C24.815550668945313,48.59756400756836,24.00161066894531,48.59756400756836,24.00161066894531,48.59756400756836C23.08318066894531,48.59756400756836,22.408350668945314,48.740264007568356,21.97701066894531,49.02580400756836C21.545660668945313,49.30445400756836,21.329930668945313,49.71536400756836,21.329930668945313,50.258664007568356C21.329930668945313,50.68346400756836,21.45861066894531,51.017794007568355,21.716090668945313,51.26153400756836C21.980450668945313,51.49839400756836,22.34573066894531,51.616764007568364,22.811820668945312,51.616764007568364Z" fill="#42446E" fill-opacity="1"/></g><g><path d="M41.63549096374511,42.52769470214844C41.63549096374511,42.52769470214844,37.94112096374512,53.62259470214844,37.94112096374512,53.62259470214844C37.94112096374512,53.62259470214844,34.05891096374512,53.62259470214844,34.05891096374512,53.62259470214844C34.05891096374512,53.62259470214844,30.322690963745117,42.52769470214844,30.322690963745117,42.52769470214844C30.322690963745117,42.52769470214844,33.88148096374512,42.52769470214844,33.88148096374512,42.52769470214844C33.88148096374512,42.52769470214844,36.04176096374512,51.09436470214844,36.04176096374512,51.09436470214844C36.04176096374512,51.09436470214844,38.29584096374512,42.52769470214844,38.29584096374512,42.52769470214844C38.29584096374512,42.52769470214844,41.63549096374511,42.52769470214844,41.63549096374511,42.52769470214844Z" fill="#42446E" fill-opacity="1"/></g><g><path d="M53.02857779541016,50.42582400756836C53.02857779541016,50.84361400756836,53.084177795410156,51.14661400756836,53.19557779541016,51.33467400756836C53.313777795410154,51.52273400756836,53.50167779541016,51.66556400756836,53.75897779541016,51.76303400756836C53.75897779541016,51.76303400756836,53.08077779541016,53.936114007568364,53.08077779541016,53.936114007568364C52.42665779541016,53.87341400756836,51.873637795410154,53.73051400756836,51.42141779541016,53.50771400756836C50.976077795410156,53.27781400756836,50.62479779541016,52.93311400756836,50.36731779541016,52.47351400756836C49.942967795410155,52.98191400756836,49.400257795410155,53.36141400756836,48.739307795410156,53.61221400756836C48.078357795410156,53.85591400756836,47.40353779541016,53.97791400756836,46.714707795410156,53.97791400756836C45.57366779541016,53.97791400756836,44.66223779541016,53.654014007568364,43.980417795410155,53.00621400756836C43.305587795410155,52.35151400756836,42.968177795410156,51.51228400756836,42.968177795410156,50.488514007568355C42.968177795410156,49.28356400756836,43.43782979541016,48.35369400756836,44.37700779541016,47.69904400756836C45.323187795410156,47.04438400756836,46.652087795410154,46.71705400756836,48.363587795410155,46.71705400756836C48.363587795410155,46.71705400756836,49.85591779541016,46.71705400756836,49.85591779541016,46.71705400756836C49.85591779541016,46.71705400756836,49.85591779541016,46.29914400756836,49.85591779541016,46.29914400756836C49.85591779541016,45.163884007568356,49.12546779541016,44.59625400756836,47.664447795410155,44.59625400756836C47.309597795410156,44.59625400756836,46.853827795410155,44.64849400756836,46.297237795410155,44.75297400756836C45.74065779541016,44.850444007568356,45.184077795410154,44.99315400756836,44.627487795410154,45.18121400756836C44.627487795410154,45.18121400756836,43.86573379541016,42.98740100756836,43.86573379541016,42.98740100756836C44.58230779541016,42.71575500756836,45.32674779541016,42.51023500756836,46.09893779541016,42.37097000756836C46.87825779541016,42.23170550756836,47.57395779541016,42.16201400756836,48.18615779541015,42.16201400756836C49.83503779541016,42.16201400756836,51.05257779541016,42.49979100756836,51.838767795410156,43.17534400756836C52.63195779541016,43.84400400756836,53.02857779541016,44.81210400756836,53.02857779541016,46.07973400756836C53.02857779541016,46.07973400756836,53.02857779541016,50.42582400756836,53.02857779541016,50.42582400756836ZM47.85218779541016,51.616764007568364C48.20703779541016,51.616764007568364,48.579317795410155,51.51228400756836,48.96891779541016,51.303324007568364C49.358507795410155,51.087484007568364,49.654177795410156,50.784494007568355,49.85591779541016,50.39448400756836C49.85591779541016,50.39448400756836,49.85591779541016,48.59756400756836,49.85591779541016,48.59756400756836C49.85591779541016,48.59756400756836,49.04196779541016,48.59756400756836,49.04196779541016,48.59756400756836C48.12353779541016,48.59756400756836,47.448717795410154,48.740264007568356,47.01736779541016,49.02580400756836C46.58602779541015,49.30445400756836,46.37029779541015,49.71536400756836,46.37029779541015,50.258664007568356C46.37029779541015,50.68346400756836,46.49909779541016,51.017794007568355,46.75645779541016,51.26153400756836C47.02081779541015,51.49839400756836,47.38609779541016,51.616764007568364,47.85218779541016,51.616764007568364Z" fill="#42446E" fill-opacity="1"/></g><g><path d="M56.218868255615234,53.62261400756836C56.218868255615234,53.62261400756836,56.218868255615234,42.52769200756836,56.218868255615234,42.52769200756836C56.218868255615234,42.52769200756836,59.09927825561523,42.52769200756836,59.09927825561523,42.52769200756836C59.09927825561523,42.52769200756836,59.32888825561523,43.81266400756836,59.32888825561523,43.81266400756836C59.822848255615234,43.255484007568356,60.34455825561523,42.84113000756836,60.89426825561523,42.56948400756836C61.44385825561523,42.29783800756836,62.07005825561524,42.16201400756836,62.77275825561524,42.16201400756836C63.718938255615235,42.16201400756836,64.46337825561524,42.45099300756836,65.00608825561524,43.02919300756836C65.54867825561523,43.60727400756836,65.82002825561523,44.42208400756836,65.82002825561523,45.47376400756836C65.82002825561523,45.47376400756836,65.82002825561523,53.62261400756836,65.82002825561523,53.62261400756836C65.82002825561523,53.62261400756836,62.522278255615234,53.62261400756836,62.522278255615234,53.62261400756836C62.522278255615234,53.62261400756836,62.522278255615234,46.42451400756836,62.522278255615234,46.42451400756836C62.522278255615234,45.741964007568356,62.44577825561524,45.26836400756836,62.29266825561523,45.003604007568356C62.14654825561524,44.73207400756836,61.868318255615236,44.59625400756836,61.45772825561524,44.59625400756836C61.109878255615236,44.59625400756836,60.77602825561523,44.70761400756836,60.455928255615234,44.930584007568356C60.142828255615235,45.15343400756836,59.82972825561524,45.46331400756836,59.516748255615234,45.86033400756836C59.516748255615234,45.86033400756836,59.516748255615234,53.62261400756836,59.516748255615234,53.62261400756836C59.516748255615234,53.62261400756836,56.218868255615234,53.62261400756836,56.218868255615234,53.62261400756836Z" fill="#42446E" fill-opacity="1"/></g><g><path d="M76.93143572265625,42.16201400756836C77.71749572265625,42.16201400756836,78.29851572265625,42.41977200756836,78.67421572265624,42.93516200756836C79.05681572265625,43.44354400756836,79.24811572265625,44.26892400756836,79.24811572265625,45.41107400756836C79.24811572265625,45.41107400756836,79.24811572265625,53.62261400756836,79.24811572265625,53.62261400756836C79.24811572265625,53.62261400756836,76.42003572265625,53.62261400756836,76.42003572265625,53.62261400756836C76.42003572265625,53.62261400756836,76.42003572265625,45.78719400756836,76.42003572265625,45.78719400756836C76.42003572265625,45.397184007568356,76.38172572265626,45.12209400756836,76.30523572265625,44.96193400756836C76.23561572265625,44.80165400756836,76.08949572265625,44.72163400756836,75.86689572265625,44.72163400756836C75.69302572265624,44.72163400756836,75.51204572265625,44.77387400756836,75.32418572265625,44.87835400756836C75.14331572265625,44.97582400756836,74.94158572265626,45.163884007568356,74.71897572265625,45.44241400756836C74.71897572265625,45.44241400756836,74.71897572265625,53.62261400756836,74.71897572265625,53.62261400756836C74.71897572265625,53.62261400756836,72.40214572265626,53.62261400756836,72.40214572265626,53.62261400756836C72.40214572265626,53.62261400756836,72.40214572265626,45.78719400756836,72.40214572265626,45.78719400756836C72.40214572265626,45.397184007568356,72.36383572265625,45.12209400756836,72.28734572265626,44.96193400756836C72.21772572265625,44.80165400756836,72.07161572265625,44.72163400756836,71.84900572265624,44.72163400756836C71.67513572265625,44.72163400756836,71.49415572265625,44.77387400756836,71.30629572265624,44.87835400756836C71.12543572265625,44.97582400756836,70.92369572265625,45.163884007568356,70.70108572265625,45.44241400756836C70.70108572265625,45.44241400756836,70.70108572265625,53.62261400756836,70.70108572265625,53.62261400756836C70.70108572265625,53.62261400756836,67.83111572265625,53.62261400756836,67.83111572265625,53.62261400756836C67.83111572265625,53.62261400756836,67.83111572265625,42.52769200756836,67.83111572265625,42.52769200756836C67.83111572265625,42.52769200756836,70.25230572265625,42.52769200756836,70.25230572265625,42.52769200756836C70.25230572265625,42.52769200756836,70.47147572265625,43.60370400756836,70.47147572265625,43.60370400756836C70.81932572265625,43.13010700756836,71.17073572265625,42.77143600756836,71.52546572265625,42.52769200756836C71.88031572265625,42.28394800756836,72.30121572265625,42.16201400756836,72.78830572265625,42.16201400756836C73.20565572265625,42.16201400756836,73.56050572265625,42.26993500756836,73.85272572265625,42.48590000756836C74.15195572265625,42.69485800756836,74.36412572265625,43.02562600756836,74.48936572265625,43.47832400756836C74.82334572265626,43.08831400756836,75.19206572265625,42.77143600756836,75.59553572265625,42.52769200756836C75.99912572265625,42.28394800756836,76.44434572265625,42.16201400756836,76.93143572265625,42.16201400756836Z" fill="#42446E" fill-opacity="1"/></g><g><path d="M91.10039724121094,40.751670837402344C91.10039724121094,40.751670837402344,91.87279724121093,43.175340837402345,91.87279724121093,43.175340837402345C91.48319724121095,43.32862083740234,91.02739724121093,43.44010083740234,90.50569724121094,43.50968083740234C89.98382724121093,43.579370837402344,89.37505724121094,43.61415083740234,88.67935724121094,43.61415083740234C89.37505724121094,43.913700837402345,89.90376724121094,44.286260837402345,90.26561724121093,44.73208083740234C90.63429724121093,45.170770837402344,90.81859724121094,45.748850837402344,90.81859724121094,46.46631083740235C90.81859724121094,47.18365083740235,90.62729724121094,47.82442083740234,90.24474724121094,48.38861083740235C89.86202724121094,48.94579083740234,89.31944724121094,49.384600837402346,88.61674724121093,49.70492083740234C87.91404724121094,50.025360837402346,87.08254724121093,50.18552083740234,86.12249724121094,50.18552083740234C85.66327724121093,50.18552083740234,85.23536724121094,50.143730837402344,84.83889724121094,50.06015083740235C84.72053724121093,50.12283083740235,84.63016724121094,50.21330083740234,84.56754724121093,50.331790837402345C84.50492724121094,50.45016083740234,84.47361724121093,50.572100837402346,84.47361724121093,50.69747083740234C84.47361724121093,50.871570837402345,84.54311724121094,51.028270837402346,84.68235724121094,51.16747083740235C84.82846724121094,51.30687083740234,85.16587724121094,51.376470837402344,85.69459724121094,51.376470837402344C85.69459724121094,51.376470837402344,87.51045724121094,51.376470837402344,87.51045724121094,51.376470837402344C88.37313724121094,51.376470837402344,89.11758724121094,51.51577083740234,89.74378724121094,51.79437083740234C90.37686724121093,52.07287083740234,90.86739724121094,52.45257083740235,91.21519724121094,52.93307083740234C91.56309724121094,53.41367083740234,91.73709724121093,53.96397083740234,91.73709724121093,54.583870837402344C91.73709724121093,55.71907083740234,91.23969724121093,56.614070837402345,90.24474724121094,57.26867083740234C89.24981724121093,57.923370837402345,87.77137724121094,58.250870837402346,85.80939724121093,58.250870837402346C84.39012724121093,58.250870837402346,83.29083724121094,58.10457083740235,82.51163724121093,57.81197083740234C81.73932724121094,57.52647083740234,81.20017024121094,57.115570837402345,80.89406824121093,56.579170837402344C80.59484124121094,56.049870837402345,80.44529724121094,55.41957083740235,80.44529724121094,54.688170837402346C80.44529724121094,54.688170837402346,83.36732724121094,54.688170837402346,83.36732724121094,54.688170837402346C83.36732724121094,55.00867083740234,83.42994724121094,55.269870837402344,83.55518724121094,55.471770837402346C83.68742724121094,55.68077083740234,83.93434724121094,55.834070837402344,84.29619724121093,55.931470837402344C84.66491724121094,56.02897083740234,85.19718724121094,56.07777083740234,85.89288724121094,56.07777083740234C86.59558724121094,56.07777083740234,87.13129724121094,56.02197083740234,87.50001724121094,55.91057083740235C87.86873724121094,55.79917083740234,88.11921724121093,55.645970837402345,88.25145724121094,55.45087083740234C88.39057724121093,55.262870837402346,88.46019724121093,55.050470837402344,88.46019724121093,54.813570837402345C88.46019724121093,54.486270837402344,88.33139724121094,54.221570837402346,88.07403724121093,54.019670837402344C87.81655724121094,53.817670837402346,87.40964724121093,53.71667083740235,86.85294724121094,53.71667083740235C86.85294724121094,53.71667083740235,85.08925724121093,53.71667083740235,85.08925724121093,53.71667083740235C83.89259724121094,53.71667083740235,83.02290724121093,53.49727083740234,82.48032724121094,53.058470837402346C81.93761724121094,52.612770837402344,81.66626724121093,52.093770837402346,81.66626724121093,51.50187083740234C81.66626724121093,51.090970837402345,81.77406724121094,50.70091083740235,81.98980724121094,50.331790837402345C82.21240724121094,49.962680837402345,82.52207724121094,49.65268083740234,82.91866724121094,49.40193083740235C82.20897724121093,49.02580083740234,81.70101724121093,48.58355083740234,81.39491424121094,48.07517083740235C81.08881124121093,47.55978083740234,80.93582024121093,46.94335083740234,80.93582024121093,46.22601083740234C80.93582024121093,45.39018083740234,81.14799524121094,44.67284083740235,81.57233724121093,44.07386083740234C81.99680724121093,43.46788083740234,82.58113724121094,43.001290837402344,83.32557724121094,42.67396083740234C84.07701724121094,42.34664083740235,84.93283724121093,42.182910837402346,85.89288724121094,42.182910837402346C86.72082724121094,42.19680083740234,87.44095724121094,42.14112083740234,88.05316724121094,42.015750837402344C88.66536724121093,41.88336083740234,89.21506724121093,41.705870837402344,89.70203724121095,41.48289983740234C90.18899724121094,41.25304583740235,90.65519724121094,41.00930383740234,91.10039724121094,40.751670837402344ZM85.97638724121094,44.324610837402346C85.45454724121093,44.324610837402346,85.04063724121093,44.491780837402345,84.73452724121094,44.82611083740235C84.42830724121094,45.15344083740234,84.27531724121094,45.60614083740234,84.27531724121094,46.18422083740234C84.27531724121094,46.79708083740235,84.43186724121094,47.26724083740234,84.74496724121094,47.59456083740234C85.05794724121094,47.921890837402344,85.46854724121094,48.08561083740234,85.97638724121094,48.08561083740234C87.10342724121094,48.08561083740234,87.66700724121094,47.437850837402344,87.66700724121094,46.142430837402344C87.66700724121094,44.93059083740234,87.10342724121094,44.324610837402346,85.97638724121094,44.324610837402346Z" fill="#42446E" fill-opacity="1"/></g></g></svg>